<svg class="icon flat-color" width="24" height="24" id="update-alt" data-name="Flat color" xmlns="http://www.w3.org/2000/svg" viewBox="0 0 24 24"><path id="primary" d="M12,3A9,9,0,0,0,6,5.32V3A1,1,0,0,0,4,3V8a1,1,0,0,0,.92,1H10a1,1,0,0,0,0-2H7.11A7,7,0,0,1,19,12a1,1,0,0,0,2,0A9,9,0,0,0,12,3Z" style="fill: rgb(0, 80, 157);"></path><path id="secondary" d="M19.08,15H14a1,1,0,0,0,0,2h2.89A7,7,0,0,1,5,12a1,1,0,0,0-2,0,9,9,0,0,0,15,6.68V21a1,1,0,0,0,2,0V16A1,1,0,0,0,19.08,15Z" style="fill: rgb(253, 197, 0);"></path></svg>