<svg class="icon flat-color" width="24" height="24" id="dashboard" data-name="Flat color" xmlns="http://www.w3.org/2000/svg" viewBox="0 0 24 24"><rect id="primary" x="2" y="2" width="9" height="11" rx="2" style="fill: rgb(0, 80, 157);"></rect><rect id="primary-2" data-name="primary" x="13" y="11" width="9" height="11" rx="2" style="fill: rgb(0, 80, 157);"></rect><path id="secondary" d="M22,4V7a2,2,0,0,1-2,2H15a2,2,0,0,1-2-2V4a2,2,0,0,1,2-2h5A2,2,0,0,1,22,4ZM9,15H4a2,2,0,0,0-2,2v3a2,2,0,0,0,2,2H9a2,2,0,0,0,2-2V17A2,2,0,0,0,9,15Z" style="fill: rgb(253, 197, 0);"></path></svg>