<svg width="18" height="20" viewBox="0 0 18 20" fill="none" xmlns="http://www.w3.org/2000/svg">
<path d="M3.66667 1L1 4.6V17.2C1 17.6774 1.1873 18.1352 1.5207 18.4728C1.8541 18.8104 2.30628 19 2.77778 19H15.2222C15.6937 19 16.1459 18.8104 16.4793 18.4728C16.8127 18.1352 17 17.6774 17 17.2V4.6L14.3333 1H3.66667Z" stroke="#B9B9B9" stroke-width="2" stroke-linecap="round" stroke-linejoin="round"/>
<path d="M1 4.6001H17" stroke="#B9B9B9" stroke-width="2" stroke-linecap="round" stroke-linejoin="round"/>
<path d="M12.5556 8.19995C12.5556 9.15473 12.181 10.0704 11.5142 10.7455C10.8474 11.4207 9.94301 11.8 9.00001 11.8C8.05702 11.8 7.15265 11.4207 6.48586 10.7455C5.81906 10.0704 5.44446 9.15473 5.44446 8.19995" stroke="#B9B9B9" stroke-width="2" stroke-linecap="round" stroke-linejoin="round"/>
</svg>
