<svg class="icon glyph" width="24" height="24" id="download-alt3" xmlns="http://www.w3.org/2000/svg" viewBox="0 0 24 24"><path d="M22,12.84a1,1,0,0,0,0-.16L19.18,4.37A2,2,0,0,0,17.28,3H16a1,1,0,0,0,0,2h1.28l2.33,7H16a1,1,0,0,0-1,1,3,3,0,0,1-6,0,1,1,0,0,0-1-1H4.39L6.72,5H8A1,1,0,0,0,8,3H6.72a2,2,0,0,0-1.9,1.37L2.05,12.68a1,1,0,0,0,0,.16A.9.9,0,0,0,2,13v7a2,2,0,0,0,2,2H20a2,2,0,0,0,2-2V13A.9.9,0,0,0,22,12.84Z" style="fill: rgb(193, 193, 193);"></path><path d="M8.29,7.29a1,1,0,0,0,0,1.42l3,3a1,1,0,0,0,1.42,0l3-3a1,1,0,1,0-1.42-1.42L13,8.59V3a1,1,0,0,0-2,0V8.59L9.71,7.29A1,1,0,0,0,8.29,7.29Z" style="fill: rgb(193, 193, 193);"></path></svg>