<svg width="22" height="20" viewBox="0 0 22 20" fill="none" xmlns="http://www.w3.org/2000/svg">
<path d="M21 10H15L13 13.375H9L7 10H1" stroke="#52965D" stroke-width="2" stroke-linecap="round" stroke-linejoin="round"/>
<path d="M4.45 2.24875L1 10V16.75C1 17.3467 1.21071 17.919 1.58579 18.341C1.96086 18.7629 2.46957 19 3 19H19C19.5304 19 20.0391 18.7629 20.4142 18.341C20.7893 17.919 21 17.3467 21 16.75V10L17.55 2.24875C17.3844 1.87389 17.1292 1.55842 16.813 1.33781C16.4967 1.11721 16.1321 1.00022 15.76 1H6.24C5.86792 1.00022 5.50326 1.11721 5.18704 1.33781C4.87083 1.55842 4.61558 1.87389 4.45 2.24875V2.24875Z" stroke="#52965D" stroke-width="2" stroke-linecap="round" stroke-linejoin="round"/>
</svg>
